<?xml version="1.0" encoding="UTF-8"?>
<svg id="Layer_2" data-name="Layer 2" xmlns="http://www.w3.org/2000/svg" width="202.24" height="132.99" viewBox="0 0 202.24 132.99">
  <g>
    <path d="m0,37.77V12.34C0,5.53,5.53,0,12.34,0s12.34,5.53,12.34,12.34v25.43c0,6.82-5.52,12.35-12.34,12.35S0,44.59,0,37.77Zm22.21,87.38c-1.37,0-2.47,1.11-2.47,2.47s1.1,2.47,2.47,2.47,2.47-1.11,2.47-2.47-1.1-2.47-2.47-2.47Zm-9.87-7.42c-1.36,0-2.47,1.1-2.47,2.46s1.1,2.47,2.47,2.47,2.47-1.11,2.47-2.47-1.11-2.46-2.47-2.46ZM84.18,0c-6.82,0-12.34,5.53-12.34,12.34v20.81c0,9.53-7.75,17.25-17.28,17.25h-12.61C18.82,50.4,0,68.37,0,91.51v25.93c0,1.37,1.1,2.47,2.47,2.47s2.47-1.1,2.47-2.47v-12.22c0-1.36,1.1-2.47,2.47-2.47s2.47,1.11,2.47,2.47v6.95c0,1.36,1.1,2.47,2.47,2.47s2.47-1.11,2.47-2.47v-11.54c0-1.36,1.1-2.47,2.47-2.47s2.47,1.12,2.47,2.47v18.87c0,1.36,1.1,2.47,2.47,2.47s2.47-1.11,2.47-2.47v-9.26s0-18.73,0-18.73c0-9.53,7.75-16.43,17.28-16.43h12.61c6.16,0,12-1.34,17.28-3.74v41.55c0,6.81,5.52,12.34,12.34,12.34s12.34-5.53,12.34-12.34V12.34c0-6.82-5.52-12.34-12.34-12.34Z" style="fill: #8ac9b7;"/>
    <g>
      <g>
        <path d="m88.76,90.06l2.12-10.62,21.13-15.03c4.84-3.41,7.24-5.86,8.29-7.73-6.92-1.29-12.4,1.69-17.29,5.13l-6.44-9.69,2.66-13.36c4.16-2.53,11.57-5.85,20.6-4.05,6.09,1.21,10.66,4.46,13.51,8.72l5.17,7.74c3.47,5.19,4.57,9.87,3.63,14.61-1.5,7.52-8.38,12.22-14.99,17.06l-1.44,1.03,5.31,1.06,6.87,10.29-2.6,13.03-39.66-7.9-6.87-10.29Z" style="fill: #fff;"/>
        <path d="m136.79,110.5l-42.31-8.43-7.75-11.6,2.42-12.14,21.75-15.47c2.41-1.7,4.3-3.22,5.66-4.56-4.73.16-8.76,2.49-12.44,5.08l-1.61,1.13-7.96-11.98,2.98-14.95.72-.44c4.9-2.98,12.69-6.14,21.96-4.29,6.22,1.24,11.45,4.62,14.72,9.53l5.17,7.74c3.69,5.52,4.97,10.77,3.91,16.04-1.48,7.42-7.52,12.2-13.64,16.69l1.8.36,7.75,11.6-3.12,15.68Zm-40.01-11.87l37.01,7.37,2.07-10.38-5.99-8.97-8.86-1.76,5.95-4.27c6.18-4.51,12.02-8.77,13.3-15.2.85-4.29-.21-8.48-3.34-13.17l-5.17-7.74c-2.75-4.12-7-6.85-12.29-7.91-7.64-1.52-14.18.9-18.51,3.39l-2.34,11.74,4.93,7.42c4.66-3.06,10.27-5.63,17.12-4.34l2.62.49-1.31,2.33c-1.33,2.36-4.23,5.1-8.86,8.36l-20.5,14.58-1.81,9.1,5.99,8.97Z" style="fill: #fff;"/>
      </g>
      <g>
        <polygon points="169.28 92.03 168.98 90.56 147.51 94.94 137.2 88.11 135.32 78.93 153.83 34.61 170.52 31.21 180.84 38.03 186.51 65.86 187.25 65.71 197.56 72.54 199.98 84.41 190.68 86.31 192.69 96.18 179.59 98.85 169.28 92.03" style="fill: #fff;"/>
        <path d="m179.2,100.89l-11.64-7.7-.08-.37-20.37,4.15-11.64-7.7-2.15-10.53,19.12-45.8,18.46-3.76,11.64,7.7,5.52,27.1,11.2,7.41,2.96,14.52-9.3,1.9,2.01,9.88-15.75,3.21Zm-8.21-10.01l9,5.95,10.45-2.13-2.01-9.88,9.3-1.9-1.88-9.23-9-5.95-1.83.37-5.9-28.93-9-5.95-14.92,3.04-17.89,42.84,1.6,7.83,9,5.95,22.56-4.6.52,2.57Z" style="fill: #fff;"/>
      </g>
      <g>
        <polygon points="129.98 99.23 132.16 88.24 137.5 96.22 135.31 107.21 129.98 99.23" style="fill: #8ac9b7;"/>
        <polygon points="179.63 67.58 186.28 66.22 180.94 38.45 172.45 33.56 179.63 67.58" style="fill: #8ac9b7;"/>
        <polygon points="189.44 68.17 197.45 73.47 199.46 83.3 191.45 78.01 189.44 68.17" style="fill: #8ac9b7;"/>
        <polygon points="184.16 89.78 182.01 79.76 190.23 85.57 192.17 95.08 184.16 89.78" style="fill: #8ac9b7;"/>
        <path d="m136.8,50.26s7.5,8.87,4.84,16.89c0,0-.25,5.09-11.18,13.26l-5.43,3.89-12.24-2.36s9.21-4.67,18.98-14.23c0,0,6.58-6.49,5.03-17.46Z" style="fill: #8ac9b7;"/>
        <path d="m128.59,97.4l2.1-10.54-22.06-4.39c5.34-3.35,9.88-6.1,13.1-8.43,8.8-6.44,11.8-9.58,13.24-16.81,2.03-10.17-4.08-18.31-14.46-20.38-8.17-1.63-14.83,1.12-18.96,3.53l-2.12,10.66c4.52-2.88,9.9-5.16,16.32-3.92,5.35,1.07,8.41,4.69,7.55,8.98-.69,3.47-4.88,6.8-9.38,10.19l-20.72,14.68-1.8,9.03,37.17,7.41Z" style="fill: #fa9eb1;"/>
        <path d="m182.14,89.22l-2.01-9.88,9.3-1.9-1.91-9.39-9.3,1.9-7.42-36.4-14.85,3.03-18.05,43.21,1.56,7.67,30.03-6.12,2.05,10.04,10.61-2.16Zm-19.71-42.48l5.24,25.71-18,3.67,12.76-29.38Z" style="fill: #fa9eb1;"/>
        <path d="m88.88,90.12l2.12-10.62,21.13-15.03c4.84-3.41,7.24-5.86,8.29-7.73-6.92-1.29-12.4,1.69-17.29,5.13l-6.44-9.69,2.66-13.36c4.16-2.53,11.57-5.85,20.6-4.05,6.09,1.21,10.66,4.46,13.51,8.72l5.17,7.74c3.47,5.19,4.57,9.87,3.63,14.61-1.5,7.52-8.38,12.22-14.99,17.06l-1.44,1.03,5.31,1.06,6.87,10.29-2.6,13.03-39.66-7.9-6.87-10.29Zm38.84,6.68l2.1-10.54-22.06-4.39c5.34-3.35,9.88-6.1,13.1-8.43,8.8-6.44,11.8-9.58,13.24-16.81,2.03-10.17-4.08-18.31-14.46-20.38-8.17-1.63-14.83,1.12-18.96,3.53l-2.12,10.66c4.52-2.88,9.9-5.16,16.32-3.92,5.35,1.07,8.41,4.69,7.55,8.98-.69,3.47-4.88,6.8-9.38,10.19l-20.72,14.68-1.8,9.03,37.17,7.41Zm-28.47-44.91l1.39.28.28-1.43c-.82.47-1.64.99-2.42,1.51l.52.78.23-1.14Zm1.18,1.76l1.35.27.28-1.43-1.39-.28-.28,1.39-1.14-.23.95,1.42.23-1.14Zm1.87-2.77l.19-.94-1.37.7,1.18.24Zm-.72,4.48l1.39.28.28-1.39-1.39-.28-.28,1.39-1.14-.23.92,1.37.23-1.14Zm1.9-2.72l.24-1.23-1.23-.24-.24,1.23,1.23.24Zm-.72,4.48l1.39.28.28-1.39-1.43-.28-.27,1.35-1.14-.23.95,1.42.23-1.14Zm1.24-7.48l.09-.45-.74.32.65.13Zm.67,4.76l.25-1.27-1.27-.25-.25,1.27,1.27.25Zm.48-3.05l.21-1.06-1.06-.21-.21,1.06,1.06.21Zm-1.35,8.27l.15-.74.78.15.68-.42.18-.9-1.39-.28-.28,1.39-1.14-.23.79,1.18.24-.16Zm-6.22,33.33l.08-.41-.41-.08-.08.41.41.08Zm8.23-36.83l.24-1.23-1.23-.24-.24,1.23,1.23.24Zm.51-3l.21-1.06-1.06-.21-.21,1.06,1.06.21Zm.52-3.04l.17-.86-.9-.18-.17.86.9.18Zm-8.09,44.63l.08-.41-.41-.08-.08.41.41.08Zm8.03-36.87l.24-.12.21-1.06-1.23-.24-.24,1.23,1.02.2Zm.68-2.97l.21-1.06-1.02-.2-.21,1.06,1.02.2Zm.52-3.04l.18-.9-.86-.17-.18.9.86.17Zm.51-3l.15-.74-.69-.14-.15.74.69.14Zm-7.89,44.72l.1-.49-.53-.11-.1.49.53.11Zm-.67,2.92l.08-.41-.41-.08-.08.41.41.08Zm8.71-39.88l.21-1.06-1.06-.21-.21,1.06,1.06.21Zm.51-3l.18-.9-.86-.17-.18.9.86.17Zm.52-3.04l.14-.69-.69-.14-.14.69.69.14Zm-7.9,44.76l.1-.49-.49-.1-.1.49.49.1Zm-.63,2.97l.08-.41-.41-.08-.08.41.41.08Zm9.2-42.97l.17-.86-.9-.18-.17.86.9.18Zm.51-3l.14-.69-.74-.15-.14.69.74.15Zm.47-3.01l.11-.57-.53-.11-.11.57.53.11Zm-7.68,44.93l.13-.65-.65-.13-.13.65.65.13Zm-.66,2.88l.1-.49-.53-.11-.1.49.53.11Zm-.67,2.92l.08-.41-.41-.08-.08.41.41.08Zm9.67-45.98l.15-.74-.69-.14-.15.74.69.14Zm.52-3.04l.11-.53-.53-.11-.11.53.53.11Zm.48-2.83l.07-.37-.37-.07-.07.37.37.07Zm-8.17,47.8l.13-.65-.65-.13-.13.65.65.13Zm-.66,2.88l.1-.49-.49-.1-.1.49.49.1Zm9.1-43.54l.05-.25-.74-.15-.11.57.8-.18Zm.42-2.55l.11-.53-.53-.11-.11.53.53.11Zm.51-3l.07-.37-.37-.07-.07.37.37.07Zm-7.51,45.13l.15-.78-.82-.16-.15.78.82.16Zm-.66,2.88l.13-.65-.65-.13-.13.65.65.13Zm-.66,2.88l.1-.49-.53-.11-.1.49.53.11Zm9.46-46.19l.11-.53-.53-.11-.11.53.53.11Zm.51-3l.07-.37-.37-.07-.07.37.37.07Zm-7.47,45.18l.16-.82-.82-.16-.16.82.82.16Zm-.66,2.88l.13-.65-.65-.13-.13.65.65.13Zm9.31-46.3l.07-.37-.37-.07-.07.37.37.07Zm-6.81,42.3l.16-.82-.94-.19-.16.82.94.19Zm-.63,2.93l.16-.82-.82-.16-.16.82.82.16Zm-.66,2.88l.13-.65-.65-.13-.13.65.65.13Zm9.24-46.4l.07-.37-.37-.07-.07.37.37.07Zm-6.75,42.4l.2-.98-.98-.2-.2.98.98.2Zm-.66,2.88l.16-.82-.82-.16-.16.82.82.16Zm4.52-18.63l.24-1.23-1.18-.24-.24,1.23,1.18.24Zm-2.02,14.63l.18-.9-1.1-.22-.18.9,1.1.22Zm-.66,2.88l.19-.94-.94-.19-.19.94.94.19Zm-.61,2.85l.15-.74-.82-.16-.15.74.82.16Zm5.05-21.5l.25-1.27-1.23-.24-.25,1.27,1.23.24Zm-2.57,17.58l.22-1.1-1.1-.22-.22,1.1,1.1.22Zm-.66,2.88l.2-.98-.98-.2-.2.98.98.2Zm4.98-21.6l.26-1.31-1.27-.25-.26,1.31,1.27.25Zm-.57,2.86l.24-1.23-1.27-.25-.24,1.23,1.27.25Zm-2.02,14.63l.18-.9-1.1-.22-.18.9,1.1.22Zm-.55,2.99l.22-1.1-1.1-.22-.22,1.1,1.1.22Zm-.64,2.76l.16-.82-.94-.19-.16.82.94.19Zm5.58-24.37l.27-1.35-1.35-.27-.27,1.35,1.35.27Zm-.61,2.85l.25-1.27-1.31-.26-.25,1.27,1.31.26Zm-2.57,17.58l.22-1.1-1.1-.22-.22,1.1,1.1.22Zm-.55,2.99l.22-1.1-1.1-.22-.22,1.1,1.1.22Zm5.49-24.56l.28-1.39-1.39-.28-.28,1.39,1.39.28Zm-.61,2.85l.27-1.35-1.35-.27-.27,1.35,1.35.27Zm-.58,2.9l.26-1.31-1.31-.26-.26,1.31,1.31.26Zm-1.97,14.6l.18-.9-1.1-.22-.18.9,1.1.22Zm-.59,2.98l.22-1.1-1.1-.22-.22,1.1,1.1.22Zm-.51,2.79l.18-.9-1.1-.22-.18.9,1.1.22Zm9.53-22.05l.28-1.43,1.35.27.15-.1.26-1.31,1.14.23.39-.26.22-1.1.94.19.71-.58.15-.74.61.12.98-.87.1-.49.37.07c.99-.91,1.89-1.83,2.69-2.82l-.65-.13.17-.86.82.16-.11.53c.33-.4.63-.81.93-1.26l-.12-.02.13-.65.37.07c.84-1.45,1.48-2.97,1.82-4.65.87-4.37-.2-8.58-3.43-13.47l-1.63-2.49c.39,2.92.31,5.03-.14,7.32-.6,3.02-1.5,5.39-2.91,7.57l.45.09-.17.86-.82-.16-.74.96-.1.49-.25-.05c-.82.9-1.72,1.82-2.76,2.76l1.02.2-.26,1.31-1.31-.26.19-.94-1.03.9.69.14-.27,1.35-1.35-.27.11-.57-.66.55.45.09-.28,1.39-1.39-.28.07-.33-.4.3.29.06-.28,1.43-1.43-.28-.28,1.43,1.43.28.28-1.43,1.47.29-.29,1.47-1.43-.28-.28,1.43,1.43.28.28-1.43,1.43.28-.29,1.47-1.43-.28-.28,1.43,1.43.28.28-1.43,1.47.29-.28,1.43-1.43-.28-.28,1.43,1.43.28Zm-4.12-2.35l.28-1.39-1.35-.27-.28,1.39,1.35.27Zm-.58,2.9l.27-1.35-1.35-.27-.27,1.35,1.35.27Zm-2.52,17.55l.22-1.1-1.1-.22-.22,1.1,1.1.22Zm-.59,2.98l.22-1.1-1.1-.22-.22,1.1,1.1.22Zm4.87-21.66l.28-1.39-1.39-.28-.28,1.39,1.39.28Zm-.58,2.9l.27-1.35-1.35-.27-.27,1.35,1.35.27Zm-1.97,14.56l.18-.9-1.1-.22-.18.9,1.1.22Zm-.55,2.99l.22-1.1-1.1-.22-.22,1.1,1.1.22Zm-.55,2.78l.18-.9-1.1-.22-.18.9,1.1.22Zm5.13-30.45l1.43.28-.28,1.43-1.43-.28.28-1.43Zm-.3,8.94l.27-1.35-1.39-.28-.27,1.35,1.39.28Zm-2.52,17.55l.22-1.1-1.1-.22-.22,1.1,1.1.22Zm-.55,2.99l.22-1.1-1.1-.22-.22,1.1,1.1.22Zm5.12-30.62l1.39.28-.28,1.39-1.39-.28.28-1.39Zm-.58,2.9l1.39.28-.28,1.39-1.39-.28.28-1.39Zm-2.22,23.51l.18-.9-1.1-.22-.18.9,1.1.22Zm-.59,2.98l.22-1.1-1.1-.22-.22,1.1,1.1.22Zm-.51,2.79l.18-.9-1.1-.22-.18.9,1.1.22Zm5.08-30.41l1.35.27-.27,1.35-1.35-.27.27-1.35Zm-.58,2.9l1.39.28-.28,1.39-1.39-.28.28-1.39Zm1.77-8.65l1.27.25-.24,1.23-1.27-.25.24-1.23Zm-.57,2.86l1.31.26-.26,1.31-1.31-.26.26-1.31Zm-3.38,29.35l.22-1.1-1.1-.22-.22,1.1,1.1.22Zm-.59,2.98l.22-1.1-1.1-.22-.22,1.1,1.1.22Zm5.12-30.58l1.31.26-.26,1.31-1.31-.26.26-1.31Zm-.58,2.9l1.35.27-.27,1.35-1.35-.27.27-1.35Zm1.2-5.79l1.27.25-.25,1.27-1.27-.25.25-1.27Zm.68-2.75l1.02.2-.2,1.02-1.02-.2.2-1.02Zm-4.08,32.01l.18-.9-1.1-.22-.18.9,1.1.22Zm-.55,2.99l.22-1.1-1.1-.22-.22,1.1,1.1.22Zm-.55,2.78l.18-.9-1.1-.22-.18.9,1.1.22Zm5.08-30.41l1.31.26-.27,1.35-1.31-.26.27-1.35Zm.61-2.85l1.23.24-.25,1.27-1.23-.24.25-1.27Zm.64-2.8l1.06.21-.21,1.06-1.06-.21.21-1.06Zm.68-2.79l.82.16-.17.86-.82-.16.17-.86Zm.64-2.8l.65.13-.14.69-.65-.13.14-.69Zm.64-2.76l.49.1-.09.45-.49-.1.09-.45Zm.79-2.9l.37.07-.07.37-.37-.07.07-.37Zm-6.77,43.37l.22-1.1-1.1-.22-.22,1.1,1.1.22Zm-.55,2.99l.22-1.1-1.1-.22-.22,1.1,1.1.22Zm5.07-30.54l1.27.25-.24,1.23-1.27-.25.24-1.23Zm.68-2.79l1.06.21-.21,1.06-1.06-.21.21-1.06Zm.64-2.8l.86.17-.17.86-.86-.17.17-.86Zm.68-2.79l.65.13-.13.65-.65-.13.13-.65Zm.64-2.8l.45.09-.1.49-.45-.09.1-.49Zm.69-2.83l.37.07-.07.37-.37-.07.07-.37Zm-.19,36.1l-5.33-7.98-2.19,10.99,5.33,7.98,2.19-10.99Zm-6.5,7.24l.22-1.1-1.1-.22-.22,1.1,1.1.22Zm-.51,2.79l.18-.9-1.1-.22-.18.9,1.1.22Zm5.68-33.18l1.06.21-.21,1.06-1.06-.21.21-1.06Zm.68-2.75l.86.17-.16.82-.86-.17.16-.82Zm.64-2.8l.65.13-.13.65-.65-.13.13-.65Zm.68-2.79l.45.09-.09.45-.45-.09.09-.45Zm.7-2.88l.37.07-.07.37-.37-.07.07-.37Zm-6.66,43.43l.22-1.1-1.1-.22-.22,1.1,1.1.22Zm6.46-36.04l.65.13-.14.69-.65-.13.14-.69Zm.64-2.8l.49.1-.1.49-.49-.1.1-.49Zm.72-2.79l.33.07-.07.33-.33-.07.07-.33Zm-6.61,43.19l.18-.9-1.1-.22-.18.9,1.1.22Zm7.06-38.64l.45.09-.09.45-.45-.09.09-.45Zm.69-2.83l.33.07-.07.33-.33-.07.07-.33Z" style="fill: #191d3a;"/>
        <path d="m169.39,92.09l-.3-1.47-21.47,4.38-10.32-6.82-1.87-9.18,18.51-44.32,16.69-3.4,10.32,6.82,5.67,27.83.73-.15,10.32,6.82,2.42,11.88-9.3,1.9,2.01,9.88-13.1,2.67-10.32-6.82Zm11.87-3.48l-2.01-9.88,9.3-1.9-1.91-9.39-9.3,1.9-7.42-36.4-14.85,3.03-18.05,43.21,1.56,7.67,30.03-6.12,2.05,10.04,10.61-2.16Zm-39.19,0l-.18-.9-1.1.22.18.9,1.1-.22Zm1.77,1.17l-.22-1.1-1.1.22.22,1.1,1.1-.22Zm1.17-1.77l-.18-.9-1.1.22.18.9,1.1-.22Zm.65,2.97l-.22-1.1-1.1.22.22,1.1,1.1-.22Zm1.12-1.8l-.22-1.1-1.1.22.22,1.1,1.1-.22Zm.65,2.97l-.22-1.1-1.1.22.22,1.1,1.1-.22Zm1.17-1.77l-.22-1.1-1.1.22.22,1.1,1.1-.22Zm-.57-2.99l-.18-.9-1.1.22.18.9,1.1-.22Zm1.17,5.75l-.18-.9-1.1.22.18.9,1.1-.22Zm1.16-1.6l-.22-1.1-1.1.22.22,1.1,1.1-.22Zm-.57-2.99l-.22-1.1-1.1.22.22,1.1,1.1-.22Zm2.34,3.99l-.18-.9-1.1.22.18.9,1.1-.22Zm-.52-2.78l-.22-1.1-1.1.22.22,1.1,1.1-.22Zm-.71-3.04l-.17-.82-.94.19.17.82.94-.19Zm10.64-40.59l5.24,25.71-18,3.67,12.76-29.38Zm-8.17,44.81l-.22-1.1-1.1.22.22,1.1,1.1-.22Zm-.66-3.01l-.2-.98-.98.2.2.98.98-.2Zm2.43,4.01l-.18-.9-1.1.22.18.9,1.1-.22Zm-.66-2.84l-.19-.94-.94.19.19.94.94-.19Zm-.71-3.04l-.15-.73-.82.17.15.73.82-.17Zm2.52,4.25l-.2-.98-.98.2.2.98.98-.2Zm-.71-3.04l-.17-.82-.82.17.17.82.82-.17Zm-1.52-14.35l-.27-1.35,1.43-.29-.28-1.39-1.43.29.28,1.39-1.43.29-.11-.53-.28.7.33-.07.26,1.27,1.51-.31Zm-.61-2.77l-.22-1.1-.55,1.26.78-.16Zm4.58,21.21l-.17-.82-.94.19.17.82.94-.19Zm-.68-2.92l-.17-.82-.82.17.17.82.82-.17Zm-.71-3.04l-.13-.65-.65.13.13.65.65-.13Zm-2.11-17.04l-.27-1.35-.16.03-.66,1.54,1.1-.22Zm4.64,21.28l-.17-.82-.82.17.17.82.82-.17Zm-.71-3.04l-.13-.65-.65.13.13.65.65-.13Zm-1.55-14.26l-.27-1.31-1.43.29.27,1.31,1.43-.29Zm-.62-2.85l-.27-1.31-1.31.27.27,1.31,1.31-.27Zm-.68-2.92l-.25-1.22-.57.12-.43,1.02.07.33,1.18-.24Zm5.32,24.21l-.15-.73-.82.17.15.73.82-.17Zm-.7-3l-.13-.65-.65.13.13.65.65-.13Zm-.66-3.05l-.1-.49-.53.11.1.49.53-.11Zm-1.55-14.05l-.27-1.31-1.31.27.27,1.31,1.31-.27Zm-.65-2.97l-.24-1.18-1.18.24.24,1.18,1.18-.24Zm-.65-2.97l-.22-1.06-1.02.21-.06.14.19.94,1.1-.22Zm5.33,24.25l-.13-.65-.65.13.13.65.65-.13Zm-.71-3.04l-.1-.49-.49.1.1.49.49-.1Zm-1.57-14.17l-.25-1.22-1.31.27.25,1.22,1.31-.27Zm-.63-2.89l-.24-1.18-1.22.25.24,1.18,1.22-.25Zm-.69-2.96l-.22-1.06-1.06.22.22,1.06,1.06-.22Zm-.65-2.97l-.19-.94-.98.2.19.94.98-.2Zm6.01,27.21l-.13-.65-.65.13.13.65.65-.13Zm-.66-3.05l-.1-.49-.53.11.1.49.53-.11Zm-.66-3.01l-.08-.41-.41.08.08.41.41-.08Zm-1.63-14.03l-.25-1.22-1.18.24.25,1.22,1.18-.24Zm-.65-2.97l-.22-1.1-1.06.22.22,1.1,1.06-.22Zm-.65-2.97l-.19-.94-.98.2.19.94.98-.2Zm-.68-2.92l-.17-.86-.86.17.17.86.86-.17Zm-.65-2.97l-.1-.49-.23.56.33-.07Zm6.69,30.09l-.1-.49-.49.1.1.49.49-.1Zm-.66-3.05l-.08-.41-.41.08.08.41.41-.08Zm.73-14.56l-.87-4.24-2.64,4.96,3.51-.72Zm-3.06-2.48l-.22-1.06-1.06.22.22,1.06,1.06-.22Zm-.64-2.93l-.2-.98-.94.19.2.98.94-.19Zm-.65-2.97l-.17-.86-.86.17.17.86.86-.17Zm-.69-2.96l-.15-.73-.73.15.15.73.73-.15Zm-.63-2.89l-.12-.61-.29.06-.26.61.02.08.65-.13Zm7.41,33l-.1-.49-.53.11.1.49.53-.11Zm-.66-3.01l-.08-.41-.41.08.08.41.41-.08Zm-3.35-19.97l.23-.52-.1-.49-.98.2.19.94.65-.13Zm-.35-2.99l-.17-.86-.82.17.17.86.82-.17Zm-.65-2.97l-.15-.73-.73.15.15.73.73-.15Zm-.65-2.97l-.12-.61-.61.12.12.61.61-.12Zm-.68-2.92l-.11-.53-.49.1.11.53.49-.1Zm7.45,32.99l-.08-.41-.41.08.08.41.41-.08Zm-4.36-22.87l.2-.47-.08-.41-.49.1.17.82.2-.04Zm-.31-3l-.15-.73-.41.08.15.73.41-.08Zm-.61-2.98l-.12-.61-.37.07.12.61.37-.07Zm-.61-2.98l-.1-.49-.33.07.1.49.33-.07Zm-.6-2.94l-.08-.41-.24.05.08.41.24-.05Zm23.77,13.39l-4.43-21.71-1.02.21-.21-1.02,1.02-.21-.37-1.8-1.1.22-.25-1.22,1.1-.22-.31-1.51-.1-.06-1.1.22-.22-1.1-.44-.29-1.1.22-.22-1.1-.44-.29-1.06.22-.22-1.06-.44-.29-1.1.22-.22-1.1-.44-.29-.73.15.33,1.63.94-.19.24,1.18-.94.19.37,1.8.86-.17.22,1.06-.86.17.39,1.92.78-.16.18.9-.78.16.43,2.12.69-.14.14.69-.69.14,4.46,21.87,6.65-1.36Zm4.48,22l-.86.17-.19-.94.86-.17-.35-1.71-1.07.18-.22-1.1-.44-.29-1.1.22-.22-1.1-.44-.29-1.06.22-.22-1.06-.44-.29-1.1.22-.22-1.1-.44-.29-.86.17.37,1.8.9-.18.18.9-.9.18,1.23,6.04,8.01,5.3-1.4-6.86Zm-15.09-40.24l.57-.12.12.57-.57.12-.12-.57Zm.69,2.96l.41-.08.08.41-.41.08-.08-.41Zm7.21,34.96l.49-.1.1.49-.49.1-.1-.49Zm-8.89-48.64l1.22-.25.24,1.18-1.22.25-.24-1.18Zm.69,2.96l1.06-.22.21,1.02-1.06.22-.21-1.02Zm.69,2.96l.9-.18.18.9-.9.18-.18-.9Zm.69,2.96l.73-.15.15.73-.73.15-.15-.73Zm7.71,37.83l.94-.19.19.94-.94.19-.19-.94Zm-7.02-34.87l.57-.12.12.57-.57.12-.12-.57Zm.7,3l.41-.08.08.41-.41.08-.08-.41Zm7.21,34.96l.45-.09.09.45-.45.09-.09-.45Zm-8.9-48.68l1.18-.24.25,1.22-1.18.24-.25-1.22Zm.69,2.96l1.02-.21.22,1.06-1.02.21-.22-1.06Zm.66,3.01l.9-.18.17.86-.9.18-.17-.86Zm.73,2.95l.69-.14.15.73-.69.14-.15-.73Zm7.71,37.83l.9-.18.18.9-.9.18-.18-.9Zm-7.06-34.86l.57-.12.12.57-.57.12-.12-.57Zm.69,2.96l.41-.08.08.41-.41.08-.08-.41Zm7.22,35l.49-.1.09.45-.49.1-.09-.45Zm-8.9-48.68l1.22-.25.24,1.18-1.22.25-.24-1.18Zm.69,2.96l1.06-.22.22,1.06-1.06.22-.22-1.06Zm.69,2.96l.9-.18.18.9-.9.18-.18-.9Zm.69,2.96l.73-.15.15.73-.73.15-.15-.73Zm7.76,37.86l.9-.18.18.9-.9.18-.18-.9Zm-7.06-34.86l.57-.12.12.57-.57.12-.12-.57Zm.69,2.96l.41-.08.08.41-.41.08-.08-.41Zm7.21,34.96l.45-.09.1.49-.45.09-.1-.49Zm-7.52-42.71l.9-.18.18.9-.9.18-.18-.9Zm.69,2.96l.73-.15.15.73-.73.15-.15-.73Zm.69,2.96l.57-.12.12.57-.57.12-.12-.57Zm.7,3l.41-.08.08.41-.41.08-.08-.41Zm7.21,34.96l.45-.09.09.45-.45.09-.09-.45Zm6.85-17.08l-8.01-5.3,2,9.83,8.01,5.3-2-9.83Z" style="fill: #191d3a;"/>
      </g>
    </g>
  </g>
  <path d="m116.45,123.37v-.06c0-3.36,2.77-5.15,6.81-5.15,2.03,0,3.48.28,4.9.68v-.55c0-2.87-1.76-4.35-4.75-4.35-1.6,0-2.96.37-4.13.89-.15.06-.31.09-.43.09-.55,0-1.05-.46-1.05-1.02,0-.49.34-.86.65-.99,1.57-.68,3.17-1.08,5.21-1.08,2.25,0,3.98.59,5.15,1.76,1.08,1.08,1.63,2.62,1.63,4.65v8.72c0,.68-.49,1.17-1.14,1.17s-1.14-.49-1.14-1.11v-1.45c-1.11,1.45-2.96,2.74-5.76,2.74-2.96,0-5.95-1.7-5.95-4.96Zm11.74-1.23v-1.54c-1.17-.34-2.74-.68-4.68-.68-2.99,0-4.65,1.29-4.65,3.3v.06c0,2,1.85,3.17,4.01,3.17,2.93,0,5.33-1.79,5.33-4.31Zm5.76-9.03c0-.65.52-1.2,1.17-1.2s1.2.52,1.2,1.2v1.63c1.05-1.57,2.47-3.02,5.15-3.02s4.25,1.39,5.12,3.17c1.14-1.76,2.84-3.17,5.61-3.17,3.67,0,5.92,2.47,5.92,6.41v8.81c0,.68-.52,1.2-1.17,1.2s-1.2-.52-1.2-1.2v-8.26c0-3.08-1.54-4.81-4.13-4.81-2.4,0-4.38,1.79-4.38,4.93v8.14c0,.68-.52,1.2-1.2,1.2s-1.17-.52-1.17-1.2v-8.32c0-2.99-1.57-4.75-4.1-4.75s-4.44,2.1-4.44,5.02v8.04c0,.68-.49,1.2-1.17,1.2s-1.2-.52-1.2-1.2v-13.84Zm27.8,0c0-.65.52-1.2,1.17-1.2s1.2.52,1.2,1.2v13.84c0,.68-.49,1.2-1.17,1.2s-1.2-.52-1.2-1.2v-13.84Zm6.1,0c0-.65.52-1.2,1.17-1.2s1.2.52,1.2,1.2v1.73c1.05-1.73,2.71-3.11,5.46-3.11,3.85,0,6.1,2.59,6.1,6.38v8.85c0,.68-.52,1.2-1.17,1.2s-1.2-.52-1.2-1.2v-8.26c0-2.96-1.6-4.81-4.41-4.81s-4.78,2-4.78,4.99v8.07c0,.68-.49,1.2-1.17,1.2s-1.2-.52-1.2-1.2v-13.84Zm17.74,18c-.37-.18-.62-.55-.62-.99,0-.52.52-1.05,1.08-1.05.22,0,.37.06.52.15,1.66,1.11,3.58,1.73,5.64,1.73,3.51,0,5.79-1.94,5.79-5.67v-1.88c-1.39,1.85-3.33,3.36-6.26,3.36-3.82,0-7.49-2.87-7.49-7.46v-.06c0-4.65,3.7-7.52,7.49-7.52,2.99,0,4.93,1.48,6.23,3.21v-1.82c0-.65.49-1.2,1.17-1.2s1.2.55,1.2,1.2v12.11c0,2.47-.74,4.35-2.03,5.64-1.42,1.42-3.54,2.13-6.07,2.13s-4.65-.65-6.66-1.88Zm12.48-11.84v-.06c0-3.27-2.84-5.39-5.86-5.39s-5.52,2.1-5.52,5.36v.06c0,3.21,2.56,5.42,5.52,5.42s5.86-2.19,5.86-5.39Zm-85.21-2.8h-7.41c-.2,0-.37.16-.37.37s.16.37.37.37h1.91c.2,0,.37.16.37.37s-.17.37-.37.37h-1.15c-.2,0-.37.16-.37.37s.16.36.37.36h5.2c.17,0,.3.13.3.3v4.87c0,.12-.05.23-.15.31-1.48,1.15-3.69,2.04-6.08,2.04-5.24,0-8.54-3.82-8.54-8.97v-.06c0-4.81,3.42-8.85,8.2-8.85,2.71,0,4.44.8,5.98,1.97.25.19.49.31.77.31.65,0,1.2-.55,1.2-1.23,0-.43-.22-.77-.49-.99-1.97-1.45-4.1-2.31-7.37-2.31-6.47,0-10.82,5.24-10.82,11.16v.06c0,6.16,4.19,11.1,10.97,11.1,3.21,0,5.86-1.17,7.83-2.62.55-.37.83-.89.83-1.48v-6.56c0-.68-.55-1.23-1.2-1.23Zm-3.81,1.46h-.19c-.2,0-.36-.16-.36-.36s.16-.36.36-.36h.19c.2,0,.36.16.36.36s-.16.36-.36.36Zm-5.32-1.09c0-.2.16-.37.37-.37s.37.16.37.37-.16.37-.37.37-.37-.16-.37-.37Zm59.23-8.21c.73,0,1.32-.59,1.32-1.32s-.59-1.32-1.32-1.32-1.32.59-1.32,1.32.59,1.32,1.32,1.32Z"/>
</svg>