<?xml version="1.0" encoding="UTF-8"?>
<svg id="Layer_3" data-name="Layer 3" xmlns="http://www.w3.org/2000/svg" width="93.38" height="140.58" viewBox="0 0 93.38 140.58">
  <path d="m19.68,105.83c0,1.37-1.09,2.48-2.44,2.48h0c-1.34,0-2.43-1.11-2.43-2.48v-2.5c0-1.37,1.09-2.48,2.43-2.48h0c1.34,0,2.44,1.11,2.44,2.48v2.5Zm-17.21,29.74c-1.36,0-2.47,1.12-2.47,2.51s1.1,2.51,2.47,2.51,2.47-1.12,2.47-2.51-1.1-2.51-2.47-2.51Zm9.87-11.59c-1.36,0-2.47,1.12-2.47,2.51s1.11,2.51,2.47,2.51,2.47-1.12,2.47-2.51-1.11-2.51-2.47-2.51Zm39.6-29.38c21.44.13,41.44-22.86,41.44-47.1C93.38,21.26,72.47,0,46.69,0S0,21.26,0,47.48v83.24c0,1.39,1.1,2.51,2.47,2.51s2.47-1.12,2.47-2.51v-22.42c0-1.38,1.1-2.51,2.47-2.51s2.47,1.12,2.47,2.51v10.01c0,1.39,1.11,2.51,2.47,2.51s2.47-1.12,2.47-2.51v-3.5c0-1.38,1.1-2.51,2.47-2.51s2.47,1.12,2.47,2.51v10.83c0,1.39,1.1,2.51,2.47,2.51s2.48-1.12,2.48-2.51V47.48c0-12.35,9.86-22.36,22-22.36s21.98,10.01,21.98,22.36c0,10.68-7.38,19.69-17.23,21.91-7.54,1.7-12.34,5.69-12.34,12.62s6.02,12.57,12.84,12.57Z" style="fill: #634c9f;"/>
</svg>