<?xml version="1.0" encoding="UTF-8"?>
<svg id="Layer_1" data-name="Layer 1" xmlns="http://www.w3.org/2000/svg" width="200.52" height="117.04" viewBox="0 0 200.52 117.04">
  <path d="m106.97,83.69c0,13.41-11.37,33.36-42.7,33.36-27.93,0-45.1-17.99-45.82-18.75l-11.73-10.97-1.45-1.31c-.93-.88-.97-2.34-.1-3.27.88-.93,2.34-.97,3.27-.1l2.93,2.64c.93.88,2.39.83,3.27-.09.87-.93.83-2.39-.1-3.27l-6.04-5.87c-.93-.87-.97-2.33-.1-3.27.88-.93,2.34-.97,3.27-.1l7.97,7.78c.93.87,2.39.82,3.27-.1.88-.92.83-2.39-.1-3.26l-3.17-3.01c-.93-.87-.97-2.34-.09-3.27.88-.93,2.34-.97,3.27-.1l.4.46,12.06,11.3c.46.47,11.32,11.46,28.98,11.46,9.35,0,14.18-2.57,16.58-4.72,2.93-2.62,3.01-5.24,3.01-5.53,0-2.43,0-7.47-10.98-11.07-2.17-.71-4.79-1.43-7.57-2.2-15.38-4.24-41.13-11.33-41.13-36.1,0-12.53,5.98-22.73,16.83-28.7C50.26.55,60.36,0,64.27,0c12.53,0,24.1,4.08,38.68,13.63,5.34,3.5,6.83,10.66,3.33,16-3.5,5.33-10.66,6.82-15.99,3.33-13.22-8.66-20.32-9.86-26.02-9.86-3.43,0-8.41.73-12.11,2.76-3.45,1.9-4.85,4.36-4.85,8.46,0,6.06,8.13,9.41,24.15,13.83,3.05.84,5.93,1.63,8.63,2.52,23.4,7.67,26.88,23.98,26.88,33.02ZM.63,78.52c-.87.94-.83,2.4.1,3.27.93.87,2.4.83,3.27-.1.88-.93.83-2.39-.09-3.27-.93-.87-2.39-.82-3.27.1Zm5.67-7.73c.88-.93.83-2.39-.09-3.26-.93-.87-2.39-.83-3.26.1-.87.93-.83,2.39.1,3.27.93.88,2.39.83,3.26-.1Zm17.4,23.24c.88-.96.83-2.46-.1-3.36l-3.55-3.42c-.93-.9-2.39-.85-3.26.1h0c-.88.96-.83,2.47.1,3.36l3.55,3.42c.93.9,2.39.85,3.26-.11h0Z" style="fill: #fa9eb1;"/>
  <g>
    <g>
      <path d="m95.53,83.88l1.96-9.83,19.55-13.9c4.48-3.15,6.7-5.42,7.67-7.15-6.4-1.2-11.47,1.57-15.99,4.75l-5.95-8.97,2.46-12.36c3.84-2.34,10.7-5.41,19.06-3.75,5.63,1.12,9.86,4.13,12.5,8.07l4.78,7.16c3.21,4.8,4.23,9.13,3.36,13.52-1.39,6.95-7.75,11.3-13.87,15.78l-1.33.95,4.91.98,6.35,9.52-2.4,12.06-36.69-7.31-6.35-9.52Z" style="fill: #fff;"/>
      <path d="m139.96,102.78l-39.15-7.8-7.17-10.74,2.24-11.23,20.12-14.31c2.23-1.57,3.98-2.98,5.23-4.22-4.38.15-8.1,2.3-11.51,4.7l-1.49,1.05-7.36-11.09,2.76-13.83.66-.4c4.53-2.76,11.73-5.68,20.32-3.97,5.75,1.15,10.59,4.28,13.62,8.82l4.78,7.16c3.41,5.11,4.59,9.96,3.62,14.84-1.37,6.87-6.95,11.29-12.62,15.45l1.66.33,7.17,10.74-2.89,14.51Zm-37.02-10.98l34.24,6.82,1.91-9.6-5.54-8.3-8.19-1.63,5.5-3.96c5.72-4.17,11.12-8.11,12.31-14.06.79-3.97-.19-7.84-3.09-12.19l-4.78-7.16c-2.55-3.81-6.48-6.34-11.37-7.32-7.07-1.41-13.12.83-17.13,3.13l-2.17,10.87,4.56,6.87c4.31-2.83,9.5-5.2,15.84-4.02l2.43.45-1.21,2.15c-1.23,2.19-3.91,4.72-8.2,7.73l-18.97,13.49-1.68,8.42,5.54,8.3Z" style="fill: #fff;"/>
    </g>
    <g>
      <polygon points="170.02 85.7 169.74 84.34 149.88 88.39 140.34 82.08 138.61 73.58 155.73 32.58 171.17 29.43 180.72 35.74 185.97 61.49 186.65 61.35 196.19 67.66 198.43 78.65 189.82 80.41 191.69 89.54 179.57 92.01 170.02 85.7" style="fill: #fff;"/>
      <path d="m179.2,93.89l-10.77-7.12-.07-.34-18.84,3.84-10.77-7.12-1.99-9.75,17.69-42.37,17.08-3.48,10.77,7.12,5.11,25.07,10.36,6.85,2.74,13.44-8.61,1.75,1.86,9.14-14.57,2.97Zm-7.59-9.26l8.32,5.5,9.67-1.97-1.86-9.14,8.61-1.75-1.74-8.54-8.32-5.5-1.69.35-5.46-26.77-8.32-5.5-13.81,2.81-16.55,39.64,1.48,7.24,8.32,5.5,20.88-4.25.48,2.37Z" style="fill: #fff;"/>
    </g>
    <g>
      <polygon points="133.66 92.36 135.68 82.19 140.62 89.58 138.59 99.75 133.66 92.36" style="fill: #8ac9b7;"/>
      <polygon points="179.6 63.08 185.76 61.82 180.81 36.12 172.96 31.6 179.6 63.08" style="fill: #8ac9b7;"/>
      <polygon points="188.68 63.63 196.09 68.53 197.94 77.63 190.54 72.73 188.68 63.63" style="fill: #8ac9b7;"/>
      <polygon points="183.79 83.62 181.8 74.34 189.41 79.72 191.2 88.52 183.79 83.62" style="fill: #8ac9b7;"/>
      <path d="m139.97,47.06s6.94,8.2,4.47,15.63c0,0-.23,4.71-10.34,12.27l-5.02,3.6-11.33-2.18s8.53-4.32,17.56-13.17c0,0,6.09-6.01,4.66-16.16Z" style="fill: #8ac9b7;"/>
      <path d="m132.38,90.67l1.94-9.75-20.41-4.07c4.94-3.1,9.14-5.64,12.12-7.8,8.14-5.96,10.92-8.86,12.25-15.55,1.87-9.41-3.78-16.94-13.37-18.85-7.56-1.51-13.72,1.04-17.54,3.26l-1.97,9.86c4.18-2.66,9.16-4.78,15.1-3.63,4.95.99,7.78,4.34,6.99,8.31-.64,3.21-4.51,6.29-8.68,9.43l-19.17,13.59-1.66,8.35,34.39,6.85Z" style="fill: #fa9eb1;"/>
      <path d="m181.92,83.1l-1.86-9.14,8.61-1.75-1.77-8.68-8.61,1.75-6.87-33.68-13.74,2.8-16.7,39.98,1.45,7.1,27.79-5.66,1.89,9.29,9.82-2Zm-18.24-39.3l4.85,23.79-16.65,3.39,11.8-27.18Z" style="fill: #fa9eb1;"/>
      <path d="m95.63,83.93l1.96-9.83,19.55-13.9c4.48-3.15,6.7-5.42,7.67-7.15-6.4-1.2-11.47,1.57-15.99,4.75l-5.95-8.97,2.46-12.36c3.84-2.34,10.7-5.41,19.06-3.75,5.63,1.12,9.86,4.13,12.5,8.07l4.78,7.16c3.21,4.8,4.23,9.13,3.36,13.52-1.39,6.95-7.75,11.3-13.87,15.78l-1.33.95,4.91.98,6.35,9.52-2.4,12.06-36.69-7.31-6.35-9.52Zm35.94,6.18l1.94-9.75-20.41-4.07c4.94-3.1,9.14-5.64,12.12-7.8,8.14-5.96,10.92-8.86,12.25-15.55,1.87-9.41-3.78-16.94-13.37-18.85-7.56-1.51-13.72,1.04-17.54,3.26l-1.97,9.86c4.18-2.66,9.16-4.78,15.1-3.63,4.95.99,7.78,4.34,6.99,8.31-.64,3.21-4.51,6.29-8.68,9.43l-19.17,13.59-1.66,8.35,34.39,6.85Zm-26.34-41.55l1.28.26.26-1.32c-.76.44-1.52.92-2.24,1.4l.48.73.21-1.06Zm1.09,1.63l1.25.25.26-1.32-1.28-.26-.26,1.28-1.06-.21.88,1.31.21-1.06Zm1.73-2.56l.17-.87-1.27.65,1.1.22Zm-.67,4.15l1.28.26.26-1.28-1.28-.26-.26,1.28-1.06-.21.85,1.27.21-1.06Zm1.76-2.52l.23-1.13-1.13-.23-.23,1.13,1.13.23Zm-.67,4.15l1.28.26.26-1.28-1.32-.26-.25,1.25-1.06-.21.88,1.31.21-1.06Zm1.14-6.92l.08-.42-.69.3.6.12Zm.62,4.41l.23-1.17-1.17-.23-.23,1.17,1.17.23Zm.44-2.82l.2-.98-.98-.2-.2.98.98.2Zm-1.25,7.65l.14-.68.72.14.63-.39.17-.83-1.28-.26-.26,1.28-1.06-.21.73,1.09.23-.15Zm-5.75,30.84l.08-.38-.38-.08-.08.38.38.08Zm7.62-34.08l.23-1.13-1.13-.23-.23,1.13,1.13.23Zm.47-2.77l.2-.98-.98-.2-.2.98.98.2Zm.48-2.81l.16-.79-.83-.17-.16.79.83.17Zm-7.48,41.3l.08-.38-.38-.08-.08.38.38.08Zm7.43-34.12l.22-.11.2-.98-1.13-.23-.23,1.13.94.19Zm.63-2.74l.2-.98-.94-.19-.2.98.94.19Zm.48-2.81l.17-.83-.79-.16-.17.83.79.16Zm.47-2.77l.14-.68-.64-.13-.14.68.64.13Zm-7.3,41.37l.09-.45-.49-.1-.09.45.49.1Zm-.62,2.71l.08-.38-.38-.08-.08.38.38.08Zm8.06-36.9l.2-.98-.98-.2-.2.98.98.2Zm.47-2.77l.17-.83-.79-.16-.17.83.79.16Zm.48-2.81l.13-.64-.64-.13-.13.64.64.13Zm-7.31,41.41l.09-.45-.45-.09-.09.45.45.09Zm-.59,2.75l.08-.38-.38-.08-.08.38.38.08Zm8.51-39.76l.16-.79-.83-.17-.16.79.83.17Zm.47-2.77l.13-.64-.68-.14-.13.64.68.14Zm.44-2.78l.11-.53-.49-.1-.11.53.49.1Zm-7.1,41.57l.12-.6-.6-.12-.12.6.6.12Zm-.61,2.67l.09-.45-.49-.1-.09.45.49.1Zm-.62,2.71l.08-.38-.38-.08-.08.38.38.08Zm8.95-42.54l.14-.68-.64-.13-.14.68.64.13Zm.48-2.81l.1-.49-.49-.1-.1.49.49.1Zm.44-2.62l.07-.34-.34-.07-.07.34.34.07Zm-7.55,44.23l.12-.6-.6-.12-.12.6.6.12Zm-.61,2.67l.09-.45-.45-.09-.09.45.45.09Zm8.42-40.28l.05-.23-.68-.14-.11.53.74-.17Zm.39-2.36l.1-.49-.49-.1-.1.49.49.1Zm.47-2.77l.07-.34-.34-.07-.07.34.34.07Zm-6.94,41.76l.14-.72-.76-.15-.14.72.76.15Zm-.61,2.67l.12-.6-.6-.12-.12.6.6.12Zm-.61,2.67l.09-.45-.49-.1-.09.45.49.1Zm8.75-42.73l.1-.49-.49-.1-.1.49.49.1Zm.47-2.77l.07-.34-.34-.07-.07.34.34.07Zm-6.91,41.8l.15-.76-.76-.15-.15.76.76.15Zm-.61,2.67l.12-.6-.6-.12-.12.6.6.12Zm8.61-42.84l.07-.34-.34-.07-.07.34.34.07Zm-6.3,39.13l.15-.76-.87-.17-.15.76.87.17Zm-.58,2.71l.15-.76-.76-.15-.15.76.76.15Zm-.61,2.67l.12-.6-.6-.12-.12.6.6.12Zm8.55-42.93l.07-.34-.34-.07-.07.34.34.07Zm-6.24,39.23l.18-.91-.91-.18-.18.91.91.18Zm-.61,2.67l.15-.76-.76-.15-.15.76.76.15Zm4.18-17.24l.23-1.13-1.1-.22-.23,1.13,1.1.22Zm-1.87,13.54l.17-.83-1.02-.2-.17.83,1.02.2Zm-.61,2.67l.17-.87-.87-.17-.17.87.87.17Zm-.56,2.64l.14-.68-.76-.15-.14.68.76.15Zm4.67-19.89l.23-1.17-1.13-.23-.23,1.17,1.13.23Zm-2.38,16.26l.2-1.02-1.02-.2-.2,1.02,1.02.2Zm-.61,2.67l.18-.91-.91-.18-.18.91.91.18Zm4.61-19.98l.24-1.21-1.17-.23-.24,1.21,1.17.23Zm-.53,2.65l.23-1.13-1.17-.23-.23,1.13,1.17.23Zm-1.87,13.54l.17-.83-1.02-.2-.17.83,1.02.2Zm-.51,2.77l.2-1.02-1.02-.2-.2,1.02,1.02.2Zm-.59,2.55l.15-.76-.87-.17-.15.76.87.17Zm5.16-22.55l.25-1.25-1.25-.25-.25,1.25,1.25.25Zm-.56,2.64l.23-1.17-1.21-.24-.23,1.17,1.21.24Zm-2.38,16.26l.2-1.02-1.02-.2-.2,1.02,1.02.2Zm-.51,2.77l.2-1.02-1.02-.2-.2,1.02,1.02.2Zm5.08-22.72l.26-1.29-1.28-.26-.26,1.29,1.28.26Zm-.56,2.64l.25-1.25-1.25-.25-.25,1.25,1.25.25Zm-.53,2.68l.24-1.21-1.21-.24-.24,1.21,1.21.24Zm-1.83,13.51l.17-.83-1.02-.2-.17.83,1.02.2Zm-.55,2.76l.2-1.02-1.02-.2-.2,1.02,1.02.2Zm-.47,2.58l.17-.83-1.02-.2-.17.83,1.02.2Zm8.82-20.4l.26-1.32,1.25.25.14-.09.24-1.21,1.06.21.36-.24.2-1.02.87.17.66-.54.14-.68.57.11.91-.8.09-.45.34.07c.91-.84,1.75-1.69,2.48-2.61l-.6-.12.16-.79.76.15-.1.49c.31-.37.58-.75.86-1.16l-.11-.02.12-.6.34.07c.78-1.34,1.37-2.75,1.68-4.3.81-4.04-.19-7.93-3.18-12.46l-1.51-2.3c.36,2.71.29,4.65-.13,6.77-.56,2.8-1.39,4.99-2.69,7.01l.42.08-.16.79-.76-.15-.69.88-.09.45-.23-.05c-.76.83-1.59,1.69-2.55,2.56l.94.19-.24,1.21-1.21-.24.17-.87-.95.83.64.13-.25,1.25-1.25-.25.11-.53-.61.51.42.08-.26,1.28-1.28-.26.06-.3-.37.28.26.05-.26,1.32-1.32-.26-.26,1.32,1.32.26.26-1.32,1.36.27-.27,1.36-1.32-.26-.26,1.32,1.32.26.26-1.32,1.32.26-.27,1.36-1.32-.26-.26,1.32,1.32.26.26-1.32,1.36.27-.26,1.32-1.32-.26-.26,1.32,1.32.26Zm-3.81-2.17l.26-1.28-1.25-.25-.26,1.28,1.25.25Zm-.53,2.68l.25-1.25-1.25-.25-.25,1.25,1.25.25Zm-2.33,16.23l.2-1.02-1.02-.2-.2,1.02,1.02.2Zm-.55,2.76l.2-1.02-1.02-.2-.2,1.02,1.02.2Zm4.5-20.04l.26-1.28-1.28-.26-.26,1.28,1.28.26Zm-.53,2.68l.25-1.25-1.25-.25-.25,1.25,1.25.25Zm-1.82,13.47l.17-.83-1.02-.2-.17.83,1.02.2Zm-.51,2.77l.2-1.02-1.02-.2-.2,1.02,1.02.2Zm-.51,2.57l.17-.83-1.02-.2-.17.83,1.02.2Zm4.75-28.17l1.32.26-.26,1.32-1.32-.26.26-1.32Zm-.27,8.28l.25-1.25-1.28-.26-.25,1.25,1.28.26Zm-2.33,16.23l.2-1.02-1.02-.2-.2,1.02,1.02.2Zm-.51,2.77l.2-1.02-1.02-.2-.2,1.02,1.02.2Zm4.74-28.33l1.28.26-.26,1.28-1.28-.26.26-1.28Zm-.53,2.68l1.28.26-.26,1.28-1.28-.26.26-1.28Zm-2.05,21.75l.17-.83-1.02-.2-.17.83,1.02.2Zm-.55,2.76l.2-1.02-1.02-.2-.2,1.02,1.02.2Zm-.47,2.58l.17-.83-1.02-.2-.17.83,1.02.2Zm4.7-28.14l1.25.25-.25,1.25-1.25-.25.25-1.25Zm-.53,2.68l1.28.26-.26,1.29-1.28-.26.26-1.29Zm1.63-8l1.17.23-.23,1.13-1.17-.23.23-1.13Zm-.53,2.65l1.21.24-.24,1.21-1.21-.24.24-1.21Zm-3.13,27.15l.2-1.02-1.02-.2-.2,1.02,1.02.2Zm-.55,2.76l.2-1.02-1.02-.2-.2,1.02,1.02.2Zm4.73-28.29l1.21.24-.24,1.21-1.21-.24.24-1.21Zm-.53,2.68l1.25.25-.25,1.25-1.25-.25.25-1.25Zm1.11-5.36l1.17.23-.23,1.17-1.17-.23.23-1.17Zm.63-2.55l.94.19-.19.94-.94-.19.19-.94Zm-3.78,29.62l.17-.83-1.02-.2-.17.83,1.02.2Zm-.51,2.77l.2-1.02-1.02-.2-.2,1.02,1.02.2Zm-.51,2.57l.17-.83-1.02-.2-.17.83,1.02.2Zm4.7-28.14l1.21.24-.25,1.25-1.21-.24.25-1.25Zm.56-2.64l1.13.23-.23,1.17-1.13-.23.23-1.17Zm.6-2.59l.98.2-.2.98-.98-.2.2-.98Zm.63-2.58l.76.15-.16.79-.76-.15.16-.79Zm.6-2.59l.6.12-.13.64-.6-.12.13-.64Zm.59-2.55l.45.09-.08.42-.45-.09.08-.42Zm.73-2.68l.34.07-.07.34-.34-.07.07-.34Zm-6.27,40.12l.2-1.02-1.02-.2-.2,1.02,1.02.2Zm-.51,2.77l.2-1.02-1.02-.2-.2,1.02,1.02.2Zm4.69-28.26l1.17.23-.23,1.13-1.17-.23.23-1.13Zm.63-2.58l.98.2-.2.98-.98-.2.2-.98Zm.6-2.59l.79.16-.16.79-.79-.16.16-.79Zm.63-2.58l.6.12-.12.6-.6-.12.12-.6Zm.6-2.59l.42.08-.09.45-.42-.08.09-.45Zm.64-2.62l.34.07-.07.34-.34-.07.07-.34Zm-.17,33.4l-4.93-7.39-2.03,10.17,4.93,7.39,2.03-10.17Zm-6.01,6.7l.2-1.02-1.02-.2-.2,1.02,1.02.2Zm-.47,2.58l.17-.83-1.02-.2-.17.83,1.02.2Zm5.25-30.7l.98.2-.2.98-.98-.2.2-.98Zm.63-2.55l.79.16-.15.76-.79-.16.15-.76Zm.6-2.59l.6.12-.12.6-.6-.12.12-.6Zm.63-2.58l.42.08-.08.42-.42-.08.08-.42Zm.65-2.66l.34.07-.07.34-.34-.07.07-.34Zm-6.16,40.18l.2-1.02-1.02-.2-.2,1.02,1.02.2Zm5.98-33.35l.6.12-.13.64-.6-.12.13-.64Zm.6-2.59l.45.09-.09.45-.45-.09.09-.45Zm.67-2.58l.3.06-.06.3-.3-.06.06-.3Zm-6.11,39.96l.17-.83-1.02-.2-.17.83,1.02.2Zm6.53-35.75l.42.08-.08.42-.42-.08.08-.42Zm.64-2.62l.3.06-.06.3-.3-.06.06-.3Z" style="fill: #191d3a;"/>
      <path d="m170.13,85.75l-.28-1.36-19.86,4.05-9.55-6.31-1.73-8.5,17.12-41.01,15.44-3.15,9.55,6.31,5.25,25.75.68-.14,9.55,6.31,2.24,10.99-8.61,1.75,1.86,9.14-12.12,2.47-9.55-6.31Zm10.98-3.22l-1.86-9.14,8.61-1.75-1.77-8.68-8.61,1.75-6.87-33.68-13.74,2.8-16.7,39.98,1.45,7.1,27.79-5.66,1.89,9.29,9.82-2Zm-36.26,0l-.17-.83-1.02.21.17.83,1.02-.21Zm1.64,1.08l-.21-1.02-1.02.21.21,1.02,1.02-.21Zm1.08-1.64l-.17-.83-1.02.21.17.83,1.02-.21Zm.6,2.75l-.21-1.02-1.02.21.21,1.02,1.02-.21Zm1.04-1.67l-.21-1.02-1.02.21.21,1.02,1.02-.21Zm.6,2.75l-.21-1.02-1.02.21.21,1.02,1.02-.21Zm1.08-1.64l-.21-1.02-1.02.21.21,1.02,1.02-.21Zm-.52-2.76l-.17-.83-1.02.21.17.83,1.02-.21Zm1.09,5.32l-.17-.83-1.02.21.17.83,1.02-.21Zm1.08-1.48l-.21-1.02-1.02.21.21,1.02,1.02-.21Zm-.52-2.76l-.21-1.02-1.02.21.21,1.02,1.02-.21Zm2.17,3.69l-.17-.83-1.02.21.17.83,1.02-.21Zm-.49-2.58l-.21-1.02-1.02.21.21,1.02,1.02-.21Zm-.65-2.82l-.15-.75-.87.18.15.75.87-.18Zm9.84-37.56l4.85,23.79-16.65,3.39,11.8-27.18Zm-7.55,41.46l-.21-1.02-1.02.21.21,1.02,1.02-.21Zm-.61-2.79l-.18-.91-.91.18.18.91.91-.18Zm2.25,3.71l-.17-.83-1.02.21.17.83,1.02-.21Zm-.61-2.63l-.18-.87-.87.18.18.87.87-.18Zm-.65-2.82l-.14-.68-.76.15.14.68.76-.15Zm2.33,3.93l-.18-.91-.91.18.18.91.91-.18Zm-.65-2.82l-.15-.76-.76.15.15.76.76-.15Zm-1.41-13.28l-.25-1.25,1.32-.27-.26-1.28-1.32.27.26,1.28-1.32.27-.1-.49-.26.64.3-.06.24,1.17,1.4-.28Zm-.56-2.56l-.21-1.02-.51,1.17.72-.15Zm4.24,19.63l-.15-.75-.87.18.15.75.87-.18Zm-.63-2.7l-.15-.76-.76.15.15.76.76-.15Zm-.65-2.82l-.12-.6-.6.12.12.6.6-.12Zm-1.96-15.76l-.25-1.25-.15.03-.61,1.42,1.02-.21Zm4.29,19.69l-.15-.76-.76.15.15.76.76-.15Zm-.65-2.82l-.12-.6-.6.12.12.6.6-.12Zm-1.43-13.2l-.25-1.21-1.32.27.25,1.21,1.32-.27Zm-.58-2.64l-.25-1.21-1.21.25.25,1.21,1.21-.25Zm-.63-2.7l-.23-1.13-.53.11-.4.95.06.3,1.09-.22Zm4.92,22.4l-.14-.68-.76.15.14.68.76-.15Zm-.65-2.78l-.12-.6-.6.12.12.6.6-.12Zm-.62-2.82l-.09-.45-.49.1.09.45.49-.1Zm-1.43-13l-.25-1.21-1.21.25.25,1.21,1.21-.25Zm-.6-2.75l-.22-1.09-1.09.22.22,1.09,1.09-.22Zm-.6-2.75l-.2-.98-.94.19-.05.13.18.87,1.02-.21Zm4.93,22.43l-.12-.6-.6.12.12.6.6-.12Zm-.65-2.82l-.09-.45-.45.09.09.45.45-.09Zm-1.45-13.11l-.23-1.13-1.21.25.23,1.13,1.21-.25Zm-.58-2.67l-.22-1.09-1.13.23.22,1.09,1.13-.23Zm-.64-2.74l-.2-.98-.98.2.2.98.98-.2Zm-.6-2.75l-.18-.87-.91.18.18.87.91-.18Zm5.56,25.17l-.12-.6-.6.12.12.6.6-.12Zm-.62-2.82l-.09-.45-.49.1.09.45.49-.1Zm-.61-2.79l-.08-.38-.38.08.08.38.38-.08Zm-1.51-12.99l-.23-1.13-1.09.22.23,1.13,1.09-.22Zm-.6-2.75l-.21-1.02-.98.2.21,1.02.98-.2Zm-.6-2.75l-.18-.87-.91.18.18.87.91-.18Zm-.63-2.7l-.16-.79-.79.16.16.79.79-.16Zm-.6-2.75l-.09-.45-.21.51.3-.06Zm6.19,27.84l-.09-.45-.45.09.09.45.45-.09Zm-.62-2.82l-.08-.38-.38.08.08.38.38-.08Zm.68-13.47l-.8-3.93-2.45,4.59,3.25-.66Zm-2.83-2.29l-.2-.98-.98.2.2.98.98-.2Zm-.59-2.71l-.18-.91-.87.18.18.91.87-.18Zm-.6-2.75l-.16-.79-.79.16.16.79.79-.16Zm-.64-2.74l-.14-.68-.68.14.14.68.68-.14Zm-.58-2.67l-.12-.57-.26.05-.24.56.02.08.6-.12Zm6.85,30.54l-.09-.45-.49.1.09.45.49-.1Zm-.61-2.79l-.08-.38-.38.08.08.38.38-.08Zm-3.1-18.48l.22-.48-.09-.45-.91.18.18.87.6-.12Zm-.33-2.76l-.16-.79-.76.15.16.79.76-.15Zm-.6-2.75l-.14-.68-.68.14.14.68.68-.14Zm-.6-2.75l-.12-.57-.57.12.12.57.57-.12Zm-.63-2.7l-.1-.49-.45.09.1.49.45-.09Zm6.89,30.53l-.08-.38-.38.08.08.38.38-.08Zm-4.04-21.16l.19-.43-.08-.38-.45.09.15.76.19-.04Zm-.29-2.77l-.14-.68-.38.08.14.68.38-.08Zm-.56-2.76l-.12-.57-.34.07.12.57.34-.07Zm-.56-2.76l-.09-.45-.3.06.09.45.3-.06Zm-.55-2.72l-.08-.38-.23.05.08.38.23-.05Zm21.99,12.39l-4.09-20.09-.94.19-.19-.94.94-.19-.34-1.66-1.02.21-.23-1.13,1.02-.21-.28-1.4-.09-.06-1.02.21-.21-1.02-.41-.27-1.02.21-.21-1.02-.41-.27-.98.2-.2-.98-.41-.27-1.02.21-.21-1.02-.41-.27-.68.14.31,1.51.87-.18.22,1.09-.87.18.34,1.66.79-.16.2.98-.79.16.36,1.77.72-.15.17.83-.72.15.4,1.96.64-.13.13.64-.64.13,4.13,20.24,6.15-1.25Zm4.15,20.35l-.79.16-.18-.87.79-.16-.32-1.59-.99.16-.21-1.02-.41-.27-1.02.21-.21-1.02-.41-.27-.98.2-.2-.98-.41-.27-1.02.21-.21-1.02-.41-.27-.79.16.34,1.66.83-.17.17.83-.83.17,1.14,5.59,7.41,4.9-1.29-6.34Zm-13.96-37.23l.53-.11.11.53-.53.11-.11-.53Zm.64,2.74l.38-.08.08.38-.38.08-.08-.38Zm6.67,32.34l.45-.09.09.45-.45.09-.09-.45Zm-8.23-45l1.13-.23.22,1.09-1.13.23-.22-1.09Zm.64,2.74l.98-.2.19.94-.98.2-.19-.94Zm.64,2.74l.83-.17.17.83-.83.17-.17-.83Zm.64,2.74l.68-.14.14.68-.68.14-.14-.68Zm7.13,35l.87-.18.18.87-.87.18-.18-.87Zm-6.5-32.26l.53-.11.11.53-.53.11-.11-.53Zm.65,2.78l.38-.08.08.38-.38.08-.08-.38Zm6.67,32.34l.42-.08.08.42-.42.08-.08-.42Zm-8.24-45.04l1.09-.22.23,1.13-1.09.22-.23-1.13Zm.64,2.74l.94-.19.2.98-.94.19-.2-.98Zm.61,2.79l.83-.17.16.79-.83.17-.16-.79Zm.68,2.73l.64-.13.14.68-.64.13-.14-.68Zm7.13,35l.83-.17.17.83-.83.17-.17-.83Zm-6.54-32.25l.53-.11.11.53-.53.11-.11-.53Zm.64,2.74l.38-.08.08.38-.38.08-.08-.38Zm6.68,32.38l.45-.09.08.42-.45.09-.08-.42Zm-8.24-45.04l1.13-.23.22,1.09-1.13.23-.22-1.09Zm.64,2.74l.98-.2.2.98-.98.2-.2-.98Zm.64,2.74l.83-.17.17.83-.83.17-.17-.83Zm.64,2.74l.68-.14.14.68-.68.14-.14-.68Zm7.18,35.03l.83-.17.17.83-.83.17-.17-.83Zm-6.54-32.25l.53-.11.11.53-.53.11-.11-.53Zm.64,2.74l.38-.08.08.38-.38.08-.08-.38Zm6.67,32.34l.42-.08.09.45-.42.08-.09-.45Zm-6.96-39.52l.83-.17.17.83-.83.17-.17-.83Zm.64,2.74l.68-.14.14.68-.68.14-.14-.68Zm.64,2.74l.53-.11.11.53-.53.11-.11-.53Zm.65,2.78l.38-.08.08.38-.38.08-.08-.38Zm6.67,32.34l.42-.08.08.42-.42.08-.08-.42Zm6.33-15.8l-7.41-4.9,1.85,9.1,7.41,4.9-1.85-9.1Z" style="fill: #191d3a;"/>
    </g>
  </g>
</svg>